<svg width="560" height="170" viewBox="0 0 560 170" fill="none" xmlns="http://www.w3.org/2000/svg">
<path d="M290.791 131.647H393.329L345.478 2.68835H311.376L281.037 84.027H291.559C300.93 84.027 309.302 78.1129 312.374 69.2801L328.273 23.7335L359.534 113.29H270.207L250.391 166.518C267.519 165.75 282.65 154.613 288.41 138.33L290.791 131.571V131.647Z" fill="#737373"/>
<path d="M347.244 0.153623H309.686L277.504 86.5615H291.636C302.082 86.5615 311.376 79.9561 314.832 70.048L328.35 31.3373L356 110.679H268.44L246.704 168.975H248.547C267.519 168.975 284.493 156.994 290.791 139.098L292.558 134.028H396.939L347.244 0V0.153623ZM250.391 166.518L270.207 113.29H359.534L328.273 23.7334L312.374 69.2799C309.302 78.1127 300.93 84.0269 291.559 84.0269H281.037L311.376 2.68825H345.478L393.329 131.647H290.791L288.41 138.406C282.65 154.689 267.519 165.826 250.391 166.594V166.518Z" fill="#737373"/>
<path d="M118.436 52.997C118.436 37.5587 113.674 25.1928 104.227 16.2064C94.7798 7.21997 80.2633 2.68835 61.1383 2.68835H2.61136C3.30262 13.6718 12.4427 22.4278 23.5797 22.4278H57.4516C69.3567 22.4278 77.8054 25.0392 83.3355 30.3389C88.8657 35.6386 91.6307 43.3193 91.6307 52.9202C91.6307 62.521 89.4033 68.2048 85.1021 73.1972C79.4184 79.7258 70.2783 83.1053 57.8356 83.1821V102.691H61.0615C79.572 102.691 93.9349 98.1595 103.766 89.1731C113.521 80.2635 118.436 68.0512 118.436 52.9202V52.997Z" fill="#737373"/>
<path d="M105.994 14.363C96.0087 4.91572 80.9545 0.153687 61.1383 0.153687H0.0767212V1.3826C0.0767212 14.363 10.5993 24.8856 23.5797 24.8856H57.4516C68.6654 24.8856 76.5765 27.2666 81.569 32.1054C86.5614 36.9443 89.0961 43.9337 89.0961 52.9201C89.0961 61.9065 87.0991 66.9758 83.1819 71.5842C77.959 77.652 69.3567 80.7243 57.4516 80.7243H55.301V105.303H61.0615C80.1865 105.303 95.1638 100.54 105.456 91.0932C115.748 81.7227 120.971 68.896 120.971 52.9969C120.971 37.0979 115.902 23.8103 105.994 14.363ZM57.8356 102.768V83.2589C70.2783 83.2589 79.4184 79.8026 85.1021 73.274C89.4801 68.2047 91.6307 61.3689 91.6307 52.9969C91.6307 44.6249 88.8656 35.7153 83.3355 30.4157C77.8054 25.0392 69.2798 22.5045 57.4516 22.5045H23.5797C12.4427 22.5045 3.30261 13.7485 2.61134 2.76512H61.1383C80.2633 2.76512 94.7798 7.29674 104.227 16.2832C113.674 25.1928 118.436 37.5587 118.436 53.0737C118.436 68.5887 113.521 80.417 103.766 89.3267C93.9349 98.3131 79.572 102.845 61.0615 102.845H57.8356V102.768Z" fill="#737373"/>
<path d="M6.83582 84.1036H2.53464V166.594H28.8794V106.147C28.8794 94.0118 18.9713 84.1036 6.83582 84.1036Z" fill="#737373"/>
<path d="M6.83582 81.5691H0V169.129H31.3373V106.147C31.3373 92.6293 20.2771 81.5691 6.75902 81.5691H6.83582ZM28.8794 166.594H2.53463V84.1037H6.83582C18.9713 84.1037 28.8794 94.0118 28.8794 106.147V166.594Z" fill="#737373"/>
<path d="M473.438 157.454V166.595H500.014V135.411H495.482C483.347 135.411 473.438 145.319 473.438 157.454Z" fill="#737373"/>
<path d="M470.904 157.454V169.129H502.548V132.876H495.482C481.964 132.876 470.904 143.936 470.904 157.454ZM500.014 166.595H473.438V157.454C473.438 145.319 483.347 135.411 495.482 135.411H500.014V166.595Z" fill="#737373"/>
<path d="M448.092 2.68811H417.753L471.979 106.378H488.416C496.634 106.378 504.161 101.846 508.002 94.5493L555.776 2.68811H526.205L487.187 83.1051L448.169 2.68811H448.092Z" fill="#737373"/>
<path d="M487.11 77.3447L449.705 0.230469H413.606L470.136 108.298L470.52 108.989H488.493C497.71 108.989 506.082 103.92 510.306 95.7784L560 0.230469H524.669L487.264 77.3447H487.11ZM555.699 2.68828L507.925 94.5495C504.085 101.846 496.634 106.378 488.339 106.378H471.902L417.677 2.68828H448.015L487.033 83.1052L526.051 2.68828H555.622H555.699Z" fill="#737373"/>
<path d="M169.897 2.68835H143.552V119.281H147.854C159.989 119.281 169.897 109.373 169.897 97.2378V2.68835Z" fill="#737373"/>
<path d="M172.432 97.2378V0.153687H141.094V121.816H147.93C161.448 121.816 172.509 110.756 172.509 97.2378H172.432ZM147.853 119.281H143.552V2.68831H169.897V97.2378C169.897 109.373 159.989 119.281 147.853 119.281Z" fill="#737373"/>
<path d="M208.07 148.314H143.629V166.595H227.579C226.888 156.379 218.439 148.314 208.07 148.314Z" fill="#737373"/>
<path d="M141.094 169.129H230.191V167.9C230.191 155.765 220.283 145.857 208.147 145.857H141.171V169.206L141.094 169.129ZM143.629 148.314H208.07C218.439 148.314 226.888 156.379 227.579 166.594H143.629V148.314Z" fill="#737373"/>
</svg>
